<svg width="420" height="320" viewBox="0 0 420 320" fill="none" xmlns="http://www.w3.org/2000/svg">
  <defs>
    <linearGradient id="panel" x1="44" y1="28" x2="332" y2="268" gradientUnits="userSpaceOnUse">
      <stop stop-color="#99D3FB"/>
      <stop offset="0.5" stop-color="#A1B8FC"/>
      <stop offset="1" stop-color="#EBC4FB"/>
    </linearGradient>
    <linearGradient id="accent" x1="118" y1="82" x2="308" y2="246" gradientUnits="userSpaceOnUse">
      <stop stop-color="#F472B6"/>
      <stop offset="1" stop-color="#FB923C"/>
    </linearGradient>
  </defs>
  <rect x="26" y="18" width="288" height="208" rx="28" fill="url(#panel)" opacity="0.24"/>
  <rect x="52" y="44" width="288" height="208" rx="28" fill="white" fill-opacity="0.84" stroke="white" stroke-opacity="0.72"/>
  <rect x="74" y="70" width="110" height="74" rx="18" fill="url(#panel)" opacity="0.72"/>
  <rect x="198" y="70" width="120" height="34" rx="17" fill="#EEF2FF"/>
  <rect x="198" y="112" width="96" height="22" rx="11" fill="#FCE7F3"/>
  <rect x="74" y="158" width="244" height="22" rx="11" fill="#E0F2FE"/>
  <rect x="74" y="190" width="186" height="22" rx="11" fill="#F3E8FF"/>
  <circle cx="318" cy="252" r="52" fill="url(#accent)"/>
  <path d="M287 252C287 234.327 301.327 220 319 220H332C349.673 220 364 234.327 364 252C364 269.673 349.673 284 332 284H319C301.327 284 287 269.673 287 252Z" fill="white" fill-opacity="0.2"/>
  <path d="M111.5 118V92.5H137C148.322 92.5 156 99.368 156 108.392C156 117.584 148.154 124.5 136.328 124.5H122.484V143H111.5V118ZM122.484 116.052H135.184C141.212 116.052 144.824 113.084 144.824 108.488C144.824 103.94 141.356 100.996 135.328 100.996H122.484V116.052Z" fill="#0F172A"/>
  <path d="M200.688 138.6C190.32 138.6 182.496 131.448 182.496 120.984C182.496 110.52 190.32 103.368 200.688 103.368C211.056 103.368 218.88 110.52 218.88 120.984C218.88 131.448 211.056 138.6 200.688 138.6ZM200.688 130.608C205.32 130.608 208.728 126.984 208.728 120.984C208.728 114.984 205.32 111.36 200.688 111.36C196.056 111.36 192.648 114.984 192.648 120.984C192.648 126.984 196.056 130.608 200.688 130.608Z" fill="#0F172A"/>
  <path d="M226.822 138V104H236.878V108.776C239.246 105.272 243.326 103.368 248.366 103.368C256.862 103.368 263.342 110.328 263.342 120.984C263.342 131.688 256.862 138.6 248.366 138.6C243.518 138.6 239.51 136.84 237.142 133.576V149.8H226.822V138ZM244.938 130.608C249.57 130.608 253.086 126.984 253.086 120.984C253.086 114.984 249.57 111.36 244.938 111.36C240.306 111.36 236.79 114.984 236.79 120.984C236.79 126.984 240.306 130.608 244.938 130.608Z" fill="#0F172A"/>
</svg>
